<svg width="390" height="225" viewBox="0 0 390 225" fill="none" xmlns="http://www.w3.org/2000/svg">
  <rect width="390" height="225" fill="#4ca018"/>
  <circle cx="289.5" cy="90.5" r="65.5" fill="#e67b09"/>
  <path d="M119.036 180.036L183.5 196.5L249.036 180.964" stroke="#4B17E0" stroke-width="10" stroke-linecap="round"/>
  <path d="M84.2649 47.379C88.6035 34.7979 106.396 34.7979 110.735 47.379L113.666 55.8793C115.614 61.5258 120.929 65.3151 126.902 65.3151H134.531C148.294 65.3151 153.796 83.0932 142.439 90.8676L137.729 94.0917C132.528 97.6522 130.347 104.25 132.402 110.208L134.534 116.392C138.932 129.145 124.523 140.129 113.391 132.508L105.408 127.044C100.641 123.78 94.3589 123.78 89.5918 127.044L81.6089 132.508C70.4771 140.129 56.0676 129.145 60.4656 116.392L62.598 110.208C64.6529 104.25 62.4723 97.6522 57.2711 94.0917L52.5613 90.8676C41.2043 83.0932 46.7064 65.3151 60.4695 65.3151H68.0984C74.0712 65.3151 79.3863 61.5258 81.3335 55.8793L84.2649 47.379Z" fill="#E318AA" stroke="black" stroke-width="5px" stroke-opacity="0.4"/>
  <line x1="0" x2="100" y1="420" y2="300" stroke="red" stroke-width="10" />
</svg>
